<svg xmlns="http://www.w3.org/2000/svg" viewBox="0 0 512 512" role="img" aria-label="Yomu 轻阅读">
  <rect width="512" height="512" rx="112" fill="#202722"/>
  <path d="M34 34h360c46 0 84 38 84 84v276c0 46-38 84-84 84H34z" fill="#E4D7B8"/>
  <path d="M34 34h38v444H34z" fill="#AD5A3D"/>
  <path d="M394 34c46 0 84 38 84 84h-84z" fill="#F2EBDD" opacity=".65"/>
  <g transform="translate(70.43935 373.25147) scale(.3696852 -.3696852)" fill="#202722">
    <path d="M852 164Q860 103 860.5 56Q861 9 855-27.5Q849-64 838-92Q827-120 812-142Q809-148 805-150Q801-152 795.5-149Q790-146 782-136.5Q774-127 762-109Q752-95 743-84Q734-73 722-61Q710-49 694-35Q678-21 653 0Q620 29 618.5 36Q617 43 633 36Q649 29 660 24Q671 19 681.5 15.5Q692 12 704.5 8.5Q717 5 736 0Q741-2 747-1Q753 0 758.5 5.5Q764 11 768 22Q772 33 773 53Q773 59 773 83Q773 107 773 142.5Q773 178 772.5 220Q772 262 771.5 304.5Q771 347 770.5 385Q770 423 769 450Q765 516 758.5 558.5Q752 601 744 615Q716 666 642 618Q618 604 586 611.5Q554 619 531 654Q518 648 505 631Q492 614 481.5 591.5Q471 569 465 544.5Q459 520 461 500Q477 510 467 491Q455 461 448 442.5Q441 424 437 412Q433 400 432 392.5Q431 385 431 377Q455 390 476.5 415Q498 440 512 467.5Q526 495 529.5 520Q533 545 523 557Q513 569 515 576Q517 583 525 583Q566 584 589 566Q600 558 605 547Q610 536 610.5 525Q611 514 608 504.5Q605 495 600 490Q589 478 580.5 466.5Q572 455 555 429Q579 427 593.5 419.5Q608 412 614.5 402Q621 392 619.5 380.5Q618 369 609 359Q596 345 588.5 337Q581 329 567 313Q590 295 588 281Q586 267 554 241Q567 229 566.5 212.5Q566 196 557 182Q543 161 535.5 149Q528 137 526 130Q524 123 525.5 120Q527 117 532 114Q546 106 570.5 105Q595 104 630 108Q640 109 648 117.5Q656 126 660.5 138.5Q665 151 667 165.5Q669 180 668 193Q666 212 670.5 215Q675 218 678 209Q687 184 695.5 163.5Q704 143 715 123Q729 97 725 79.5Q721 62 694 57Q658 51 633.5 47.5Q609 44 589.5 43.5Q570 43 554 45Q538 47 519 52Q501 56 489 67Q477 78 471.5 93Q466 108 467 124.5Q468 141 474 157Q485 180 487.5 188.5Q490 197 484 203Q462 183 448.5 166.5Q435 150 420.5 133Q406 116 386 97Q366 78 333 53Q313 41 309.5 43Q306 45 305 68Q304 84 306 95Q308 106 317 112Q340 126 353 144.5Q366 163 378 177Q369 183 360 193Q351 203 345 215Q339 227 336 240Q333 253 335 265Q339 293 335.5 305Q332 317 313 331Q306 336 306.5 341.5Q307 347 316 349Q325 351 333.5 348Q342 345 362 331Q367 337 375 343Q383 349 400 359Q380 373 368.5 388.5Q357 404 355 427Q353 441 327 469Q318 479 327 482Q336 485 361 468Q380 454 397 453Q414 452 427 461Q420 472 400 474Q373 476 363.5 494.5Q354 513 362 533Q368 548 366 576Q365 583 352.5 584Q340 585 327 576Q314 566 302.5 549Q291 532 282 513Q273 494 268 475Q263 456 265 443Q267 407 265.5 389.5Q264 372 259 358Q257 353 255 338Q253 323 252 302.5Q251 282 250 259Q249 236 248.5 215Q248 194 248 178Q248 162 248 156Q250 127 248 106Q246 85 242 79Q236 66 231.5 57Q227 48 224 41Q221 34 219.5 27.5Q218 21 217 13Q214 4 210-.5Q206-5 199.5 0Q193 5 183.5 20.5Q174 36 161 66Q147 98 150 135.5Q153 173 176 232Q189 270 183 336.5Q177 403 148 491Q137 517 152 502Q162 493 169 487.5Q176 482 190 478Q207 473 218.5 464.5Q230 456 242 434Q254 479 262.5 506Q271 533 277.5 550Q284 567 290.5 578Q297 589 306 603Q315 618 321.5 626.5Q328 635 335 639.5Q342 644 352 645.5Q362 647 379 648Q392 649 399.5 648.5Q407 648 413.5 644Q420 640 426.5 631.5Q433 623 444 608Q485 640 499 663Q515 689 536 694Q557 699 600 686Q608 684 622.5 685.5Q637 687 645 692Q674 712 701.5 709Q729 706 762 675Q768 668 773 665.5Q778 663 788 659Q825 647 835 627.5Q845 608 843 568Q842 544 841.5 509.5Q841 475 841 435Q841 395 842 353.5Q843 312 844.5 275Q846 238 848 208.5Q850 179 852 164ZM502 343Q479 331 457.5 322.5Q436 314 426 314Q410 314 402 312Q394 310 385 305Q391 295 393 279.5Q395 264 396 250Q420 255 447.5 268.5Q475 282 495 299Q508 311 513.5 320.5Q519 330 519 336Q519 342 514 344Q509 346 502 343Z"/>
  </g>
</svg>
