<svg xmlns="http://www.w3.org/2000/svg" viewBox="0 0 512 512" role="img" aria-label="Yomu 轻阅读">
  <rect width="512" height="512" rx="116" fill="#202722"/>
  <path d="M36 36h360c44 0 80 36 80 80v280c0 44-36 80-80 80H36z" fill="#E4D7B8"/>
  <path d="M36 36h52v440H36z" fill="#AD5A3D"/>
  <path d="M396 36c44 0 80 36 80 80h-80z" fill="#F2EBDD" opacity=".74"/>
  <g transform="translate(100 376) scale(.31 -.31)" fill="#202722">
    <path d="M614 336V421H375V336ZM71-18V539Q71 573 86.5 591Q102 609 130 609Q158 609 173 591Q188 573 188 539V-18Q188-52 173-70Q158-88 130-88Q102-88 86.5-70Q71-52 71-18ZM111 781Q111 800 131 814Q149 826 168 826Q196 826 221 798Q245 774 261 754Q279 732 279 710Q279 682 252 664Q234 652 218 652Q193 652 172 682Q151 711 136 728Q111 759 111 781ZM235 45Q235 67 275 92Q316 119 336.5 156Q357 193 366 242H340Q306 242 288 260Q270 278 270 312V446Q270 480 282 498Q294 516 316 516H361Q352 537 337 561Q320 592 320 611Q320 635 342 645Q358 652 369 652Q400 652 425 615L434 602Q453 571 453 550Q453 534 441 528L416 516H515Q540 553 570 611Q594 658 635 658Q660 658 674 647.5Q688 637 688 619Q688 601 674 578Q642 527 634 516H655Q689 516 707 498Q725 480 725 446V312Q725 278 711 260Q697 242 671 242H616V112Q616 95 619 90.5Q622 86 633 86H672Q678 86 680 88Q698 99 707 116Q717 132 731 132Q749 132 765 108Q775 90 775 78Q775 71 774 68Q767 38 752 18H798Q808 18 811.5 22Q815 26 815 36V695H411Q377 695 359 708.5Q341 722 341 748Q341 773 359 786.5Q377 800 411 800H861Q895 800 913 782Q931 764 931 730V35Q931-7 921.5-30Q912-53 888-67Q854-85 795-85Q743-85 732-44Q726-22 718-2Q706-6 685-6H615Q573-6 551 5Q529 16 521 40.5Q513 65 513 111V242H471Q459 162 428 103.5Q397 45 334 4Q313-10 292-10Q263-10 245 19Q235 32 235 45Z"/>
  </g>
</svg>
